<svg width="30" height="29" viewBox="0 0 30 29" fill="none" xmlns="http://www.w3.org/2000/svg">   <path fill-rule="evenodd" clip-rule="evenodd" d="M13.1726 7.83789C10.3333 7.83789 8.0293 10.1479 8.0293 12.9809C8.0293 15.8201 10.3394 18.124 13.1726 18.124C14.385 18.124 15.5003 17.7012 16.3802 16.9955L20.5471 21.1623L21.4051 20.3043L17.2316 16.131C17.9088 15.2598 18.3134 14.1664 18.3158 12.9816L18.3158 12.9809C18.3158 10.1418 16.0057 7.83789 13.1726 7.83789ZM9.2404 12.9809C9.2404 10.8152 11.0067 9.04897 13.1726 9.04897C15.3384 9.04897 17.1047 10.8152 17.1047 12.9809C17.1047 15.1467 15.3384 16.9129 13.1726 16.9129C11.0067 16.9129 9.2404 15.1467 9.2404 12.9809Z" fill="#00211A"></path>   <path d="M16.3802 16.9955L16.4863 16.8895L16.3912 16.7944L16.2863 16.8785L16.3802 16.9955ZM20.5471 21.1623L20.4411 21.2683L20.5471 21.3744L20.6532 21.2683L20.5471 21.1623ZM21.4051 20.3043L21.5112 20.4104L21.6173 20.3043L21.5112 20.1982L21.4051 20.3043ZM17.2316 16.131L17.1132 16.0389L17.032 16.1435L17.1256 16.2371L17.2316 16.131ZM18.3158 12.9816L18.1658 12.9812V12.9813L18.3158 12.9816ZM18.3158 12.9809L18.4658 12.9814V12.9809H18.3158ZM8.1793 12.9809C8.1793 10.2306 10.4163 7.98789 13.1726 7.98789V7.68789C10.2504 7.68789 7.8793 10.0651 7.8793 12.9809H8.1793ZM13.1726 17.974C10.4221 17.974 8.1793 15.7371 8.1793 12.9809H7.8793C7.8793 15.9031 10.2567 18.274 13.1726 18.274V17.974ZM16.2863 16.8785C15.432 17.5637 14.3495 17.974 13.1726 17.974V18.274C14.4205 18.274 15.5687 17.8387 16.474 17.1125L16.2863 16.8785ZM20.6532 21.0562L16.4863 16.8895L16.2741 17.1016L20.4411 21.2683L20.6532 21.0562ZM21.2991 20.1982L20.4411 21.0562L20.6532 21.2683L21.5112 20.4104L21.2991 20.1982ZM17.1256 16.2371L21.2991 20.4104L21.5112 20.1982L17.3377 16.0249L17.1256 16.2371ZM18.1658 12.9813C18.1634 14.1316 17.7708 15.193 17.1132 16.0389L17.3501 16.2231C18.0469 15.3267 18.4633 14.2012 18.4658 12.9819L18.1658 12.9813ZM18.1658 12.9805L18.1658 12.9812L18.4658 12.982L18.4658 12.9814L18.1658 12.9805ZM13.1726 7.98789C15.923 7.98789 18.1658 10.2248 18.1658 12.9809H18.4658C18.4658 10.0588 16.0885 7.68789 13.1726 7.68789V7.98789ZM13.1726 8.89897C10.9239 8.89897 9.0904 10.7324 9.0904 12.9809H9.3904C9.3904 10.8981 11.0896 9.19897 13.1726 9.19897V8.89897ZM17.2547 12.9809C17.2547 10.7324 15.4213 8.89897 13.1726 8.89897V9.19897C15.2556 9.19897 16.9547 10.8981 16.9547 12.9809H17.2547ZM13.1726 17.0629C15.4213 17.0629 17.2547 15.2295 17.2547 12.9809H16.9547C16.9547 15.0638 15.2556 16.7629 13.1726 16.7629V17.0629ZM9.0904 12.9809C9.0904 15.2295 10.9239 17.0629 13.1726 17.0629V16.7629C11.0896 16.7629 9.3904 15.0638 9.3904 12.9809H9.0904Z" fill="#00211A"></path>   <circle cx="14.6895" cy="14.5" r="13.75" stroke="#00211A" stroke-width="1.5"></circle> </svg>